<svg version="1.1" class=brand__draft"" xmlns="http://www.w3.org/2000/svg" xmlns:xlink="http://www.w3.org/1999/xlink" x="0px"
	 y="0px" viewBox="0 0 253.1 55.4" style="enable-background:new 0 0 253.1 55.4;" xml:space="preserve">
<style type="text/css">
	.st2{fill:#1D2087;}
	.st3{fill:#E4005A;}
	.st4{fill:#24BBEE;}
	.st5{fill:#1EAA39;}
	.st6{fill:#F7B52C;}
	.st7{fill:#E95513;}
	.st8{fill:#EF8F7F;}
</style>
<g>
	<g>
		<path class="st2" d="M30,27.6c-2.9,0-5.9,0-8.7,0c0.4-1,0.7-1.8,0.8-2.4h5c2.7-0.1,4.6-1.7,4.8-4.2c0-0.7,0.1-1.5,0.1-2.3
			c0-1.1-0.1-2.1-0.1-2.8c-0.2-2.1-2-3.6-4.5-3.7c-2.5-0.1-5.1-0.1-7.7-0.1c-2.6,0-5,0-7.1,0.1c-3.5,0.1-4.7,2.2-4.8,4
			c0,0.8,0,1.7,0,2.7c0,0.7,0,1.4,0,2.1c0.2,2.5,2,4,4.9,4.1c1.1,0,2.5,0,4.1,0c-0.1,0.7-0.4,1.5-0.6,2.3c-2.4,0-4.6,0-6.7,0
			c-3.6,0-4.9,2.2-4.9,4c0,1,0,2.2,0,3.5c0,0.9,0,1.8,0,2.6c0.1,2.5,2,4.1,5,4.2C12,42,14.7,42,17.5,42c3.5,0,7.3,0,11.3-0.1l1.2,0
			c3,0,5-1.7,5.2-4.2c0-1,0.1-2.1,0.1-3.3c0-1,0-2-0.1-3.2C35.1,29.6,33.7,27.7,30,27.6z M11.4,32.1l0.1,0c2.9,0,5.6-0.1,8.6-0.1
			c9.1,0,9.3,0,9.4,1.1c0,0.5,0,1,0,1.5c0,2.2-0.1,2.6-1.5,2.6c-3.2,0-6,0-8.7,0c-2.7,0-5.3,0-8.1,0c-1.1,0-1.5,0-1.5-2.5
			C9.8,32.6,10,32.1,11.4,32.1z M26.4,18.7c0,0.3,0,0.6,0,1c0,1.1-0.4,1.2-6.8,1.2c-6.4,0-6.5-0.1-6.6-1.2c0-0.2,0-0.4,0-0.6
			c0-0.2,0-0.3,0-0.5c0-1.2,0.1-2,1.5-2.1c1.8,0,3.7-0.1,5.6-0.1C26.4,16.4,26.4,16.4,26.4,18.7z"/>
		<path class="st2" d="M33.4,5.3C30,5.2,26.4,5.1,22.7,5.1V2.7c0-1.7-1.5-2.7-3-2.7c-1.5,0-2.9,0.9-2.9,2.7v2.5
			c-3.6,0-7.2,0-10.8,0.1c-3.9,0-5.8,2.6-5.9,5c0,0.4,0,0.8,0,1.2c0,0.4,0,0.8,0,1.2c0,0.4,0,0.8,0,1.2c0,0.4,0,0.7,0,1
			c0,1.9,1.5,2.7,2.8,2.7c1.4,0,2.9-0.9,2.9-2.6l0-2.5c0.1-1.6,0.4-2.2,2.8-2.3c2.9-0.1,6.3-0.1,9.9-0.1c4.2,0,8.3,0,11.9,0.1
			c2.5,0,2.6,1,2.6,3.1v1.6c0,1.7,1.5,2.5,2.9,2.5c1.4,0,3-0.8,3.1-2.6c0-0.5,0-1.2,0-1.8c0-0.9,0-1.8,0-2.6
			C39,7.5,36.6,5.3,33.4,5.3z"/>
		<path class="st2" d="M73.8,17.9c1,0.5,2,1.1,3,2.3l0,0c0.4,0.5,0.8,0.7,1.3,0.7c1.1,0,2.2-1.2,2.2-2.5c0-2.2-4.1-3.9-5.1-3.9
			c-1.2,0-2.3,1.1-2.3,2.1C72.9,17,73,17.5,73.8,17.9z"/>
		<path class="st2" d="M54.1,38.7c0-1.1-0.8-2.2-2-2.2c-0.4,0-0.8,0.1-1.2,0.4c-0.3,0.2-0.7,0.4-1,0.5l0-8.5h2
			c1.5,0,2.3-1.2,2.3-2.4c0-1.1-0.7-2.4-2.3-2.4h-2v-7.8c0-1.7-1.4-2.5-2.7-2.5c-1.3,0-2.6,0.9-2.6,2.5v7.8h-2.4
			c-1.6,0-2.4,1.2-2.4,2.4c0,1.2,0.8,2.4,2.4,2.4h2.4l0,10.7c-1.1,0.4-2.2,0.7-3.4,1.1l-0.2,0.1c-1.3,0.4-1.8,1.5-1.8,2.5
			c0,1.3,0.8,2.7,2.4,2.7c1.2,0,5.9-1.9,11-4.8C53.6,40.5,54.1,39.7,54.1,38.7z"/>
		<path class="st2" d="M80.5,43.8c-1,0-2.2,0.7-2.4,2.1c-0.4,2.9-0.8,3.3-1.1,3.3c-0.3,0-1-0.4-2.5-4.5c0-0.1,0-0.1-0.1-0.1
			c3.5-5.3,5.7-11.7,5.7-12.5c0-1.5-1.5-2.5-2.9-2.5c-1.1,0-2,0.7-2.2,1.8C74.7,33,74,35.5,73,38c-0.4-3.1-0.7-6.8-0.7-11.7H79
			c1.6,0,2.3-1.3,2.3-2.5c0-1.2-0.7-2.6-2.3-2.6c-1.2,0-2.4,0-3.5,0c-1.1,0-2.1,0-3.2,0c0-1.8,0.1-3.7,0.1-5.4v-0.1
			c0-1.8-1.4-2.6-2.7-2.6c-0.8,0-1.5,0.3-2,0.8c-0.5,0.5-0.7,1.1-0.7,1.8l0.1,5.4c-1.3,0-2.6,0-3.9,0c-1.3,0-2.6,0-3.9,0
			c-3.1,0-4.9,1.8-4.9,4.7V26c0,0.8,0,1.5,0.1,2.3c0,1.5,0.1,3,0.1,4.5c0,6-0.6,12.4-4.5,17.7c-0.6,0.7-0.7,1.4-0.7,1.8
			c0,1.4,1.2,2.5,2.8,2.5c1.1,0,2.1-0.6,2.9-1.7c1.6-2.4,2.7-5.1,3.3-8c0,0.1,0,0.2,0,0.3c0,2.2,1.5,2.4,2.9,2.4
			c4.8,0,5.3-4,5.3-13.1c0-2.4-0.4-4.8-5.2-4.8c-0.5,0-1.1,0-1.7,0v-2.1c0-0.8,0.4-1.6,1.5-1.6h6c0.3,7.4,0.9,13,2,17.5
			c-1.9,2.5-5,5-8.2,6.8c-0.9,0.5-1.5,1.3-1.5,2.1c0,1.4,1.3,2.6,2.8,2.6c2.3,0,7-4.7,8.5-6.3c1.2,2.7,2.7,5.6,5.9,5.6
			c3.7,0,6.4-4.3,6.4-8.1C83.1,44.7,81.8,43.8,80.5,43.8z M59.6,34.4h1.3c1.1,0,1.2,0.7,1.2,2.7c0,5.5-0.3,6-1.3,6c0,0-0.1,0-0.1,0
			c-0.1,0-0.2,0-0.3,0c0,0-0.1,0-0.1,0c-0.1,0-0.1,0-0.2,0c-0.8,0-1.3,0.6-1.6,1.3C59.3,40.9,59.5,37.4,59.6,34.4z"/>
	</g>
	<g>
		<path class="st3" d="M101.8,49.5c-7.4,0-7.5-4.7-7.5-7.7c0-2.4,0.2-5.4,0.3-8.2c0.1-1.7,0.1-3.4,0.1-4.9c0-1.4-0.1-2.7-0.2-3.8
			c0-0.1,0-0.3,0-0.4c0-1.3,1-1.9,2.1-1.9c1,0,2.1,0.6,2.2,1.9c0.1,0.7,0.1,1.5,0.1,2.3c0,2-0.2,4.3-0.3,6.6c-0.2,2.7-0.4,5.5-0.4,8
			c0,2.9,0.1,4.2,3.3,4.2c1.3,0,4.5-0.2,8.1-1.8c0.5-0.2,0.9-0.3,1.3-0.3c1.2,0,1.9,0.9,1.9,1.9c0,0.9-0.6,1.9-1.9,2.5
			C106.9,49.3,103.4,49.5,101.8,49.5z"/>
		<path class="st2" d="M127.9,49.2c-7.3,0-11.2-3.4-11.2-5.5c0-1.1,0.9-2.2,2.1-2.2c0.6,0,1.2,0.3,1.8,1c1.6,1.9,3.9,2.5,6.3,2.5
			c2.1,0,4.2-0.5,5.9-0.9c0.3-0.1,0.6-0.1,0.9-0.1c1.4,0,2.2,1,2.2,2.1c0,1-0.7,2.1-2.2,2.5C131.8,49,129.9,49.2,127.9,49.2z
			 M130.4,31.2c-4.3,0-7.6-1.4-9.4-2.2c-0.9-0.5-1.4-1.3-1.4-2.1c0-0.9,0.7-1.8,1.8-1.8c0.3,0,0.7,0.1,1.1,0.2
			c2.4,1,4.6,1.6,8.3,1.8c1.4,0.1,2.1,1,2.1,2C133,30.2,132.2,31.2,130.4,31.2z M134.7,27.3c-0.4-0.6-1.8-1.9-2.5-2.3
			c-0.5-0.3-0.7-0.7-0.7-1c0-0.7,0.7-1.3,1.5-1.3c1.1,0,4.2,2.2,4.2,3.6c0,0.9-0.8,1.6-1.5,1.6C135.4,27.8,135,27.7,134.7,27.3z
			 M138.8,25c-0.4-0.6-1.9-1.8-2.6-2.2c-0.6-0.3-0.8-0.7-0.8-1.1c0-0.7,0.7-1.4,1.5-1.4c0.9,0,4.3,1.9,4.3,3.5
			c0,0.9-0.8,1.6-1.5,1.6C139.4,25.5,139.1,25.4,138.8,25z"/>
		<path class="st4" d="M148.6,31.8c0-0.5,0-1.1,0-1.7c0.1-1.6,0.1-3,0.1-4c0-1.5-0.1-2.6-0.2-3.3c0-0.2-0.1-0.3-0.1-0.5
			c0-1.1,0.9-1.7,1.9-1.7c2.5,0,2.5,2.5,2.5,4.4c0,1-0.1,2.2-0.2,4.1c-0.1,1.2-0.2,2.1-0.2,2.7c0,0.5,0.1,2.1,2,2.1
			c0.7,0,0.7-0.3,1.1-0.4c0.2-0.1,0.4-0.1,0.6-0.1c1,0,1.9,0.8,1.9,1.9c0,0.7-0.4,1.4-1.4,2.1c-1.2,0.7-3.9,1.8-5.5,2.7
			c-2.6,1.4-3.7,2.8-3.7,4c0,1.4,1.6,2.7,4.8,2.7c1.8,0,3.7-0.3,4.7-1c0.7-0.5,1.3-0.6,1.9-0.6c1.3,0,2.3,1,2.3,2.1
			c0,2.3-4.3,3.6-7.9,3.6c-6.7,0-9.4-3.3-9.4-6.2c0-2.6,2.1-5.6,6.4-8.1c0.3-0.1,0.4-0.2,0.6-0.3C149.1,35.1,148.6,34.5,148.6,31.8z
			"/>
		<path class="st5" d="M171.2,47.8c0.1,1.9-1.1,3-2.4,3c-1,0-1.9-0.7-1.9-2.3c0,0,0-0.1,0-0.1c0.2-3.7,0.2-9.7,0.2-14.8
			c0-7.8-0.2-8.9-0.4-9.6c0-0.2-0.1-0.4-0.1-0.6c0-1.2,1-1.9,2.1-1.9c2.2,0,2.3,2.4,2.3,3.4c0,0.3,0,0.8,0,1.4c0,1.4,0,3.3,0,5.5
			c0.5,0,0.5,0,0.5,0c2.2,0.2,8.8,1.6,8.8,4.7c0,1.3-1,2.4-2.2,2.4c-0.5,0-0.9-0.2-1.4-0.6c-1.3-1.2-4-2.2-5.7-2.5
			C171,40.2,171.1,44.8,171.2,47.8z M178.6,29.8c-0.5-0.5-2.2-1.6-2.9-1.9c-0.7-0.2-0.9-0.7-0.9-1.1c0-0.7,0.7-1.4,1.6-1.4
			c0.7,0,4.6,1.4,4.6,3.2c0,0.9-0.7,1.7-1.5,1.7C179.2,30.2,178.9,30.1,178.6,29.8z M181.7,26.5c-0.5-0.5-2.3-1.6-3-1.8
			c-0.7-0.2-1-0.7-1-1.1c0-0.7,0.7-1.5,1.6-1.5c0.7,0,4.7,1.2,4.7,3.1c0,0.9-0.7,1.7-1.5,1.7C182.3,26.9,182,26.8,181.7,26.5z"/>
		<path class="st6" d="M191.5,50c-0.4,0.2-0.8,0.2-1.1,0.2c-1.4,0-2.4-1-2.4-2.1c0-0.7,0.5-1.5,1.7-1.9c9.3-3.4,13.2-11.5,13.2-12.7
			c0-0.3-0.2-0.5-0.6-0.5c0,0-0.1,0-0.1,0c-2.7,0.2-7.3,0.9-8.9,1.1c-3.1,0.3-3.8,0.4-4.2,0.4c-1.4,0-2.3-1.1-2.3-2.2
			c0-0.9,0.7-1.8,2.2-1.8c1.8,0,2.2,0,3.8-0.1c1.7-0.1,7.7-0.8,11.7-1.1c0.1,0,0.3,0,0.5,0c1.9,0,3.4,1.1,3.4,2.8
			c0,0.5-0.1,1-0.4,1.5C204.3,40.8,200.6,46.3,191.5,50z M202.5,26.6c-0.4,0-7.3,0.8-10.6,0.8c-1.3,0-2-1.1-2-2
			c0-1.7,1.8-1.8,2.4-1.8c4.6,0,9.5-0.7,10.3-0.9c0.1,0,0.3,0,0.4,0c1.3,0,2.2,0.9,2.2,1.9C205.2,25.5,204.4,26.4,202.5,26.6z"/>
		<path class="st7" d="M214.2,49.6c-1.4,0-2.2-0.9-2.2-1.9c0-0.9,0.6-1.9,2-2.4c9.4-3.4,14.5-14.2,14.5-14.9c0-0.2-0.2-0.4-0.6-0.4
			c0,0-0.1,0-0.1,0c-2.6,0.1-6.9,0.8-9.2,1.1c-1.9,0.2-2.4,0.4-3.7,0.4c-0.2,0-0.5,0-0.7,0c-1.5-0.1-2.3-1.2-2.3-2.3
			c0-1,0.7-2,2.3-2c0.1,0,0.1,0,0.2,0c0.3,0,0.6,0,0.8,0c1.1,0,2.2-0.1,3.4-0.2c2.9-0.2,7.6-0.9,11.5-1.2c0.1,0,0.2,0,0.3,0
			c2.2,0,3.5,1.2,3.5,2.7c0,0.5-0.1,0.9-0.4,1.5c-3.8,7.5-8.1,15.1-17.9,19.1C215.2,49.5,214.7,49.6,214.2,49.6z"/>
		<path class="st8" d="M244,47.8c0.1,1.9-1.1,3-2.4,3c-1,0-1.9-0.7-1.9-2.3c0,0,0-0.1,0-0.1c0.2-3.7,0.2-9.7,0.2-14.8
			c0-7.8-0.2-8.9-0.4-9.6c0-0.2-0.1-0.4-0.1-0.6c0-1.2,1-1.9,2.1-1.9c2.2,0,2.3,2.4,2.3,3.4c0,0.3,0,0.8,0,1.4c0,1.4,0,3.3,0,5.5
			c0.5,0,0.5,0,0.5,0c2.2,0.2,8.8,1.6,8.8,4.7c0,1.3-1,2.4-2.2,2.4c-0.5,0-0.9-0.2-1.4-0.6c-1.3-1.2-4-2.2-5.7-2.5
			C243.8,40.2,243.9,44.8,244,47.8z"/>
	</g>
</g>
</svg>
