<svg version="1.1" class="pictogram04" xmlns="http://www.w3.org/2000/svg" xmlns:xlink="http://www.w3.org/1999/xlink" x="0px"
	 y="0px" viewBox="0 0 163.9 150" style="enable-background:new 0 0 163.9 150;" xml:space="preserve">
<g>
	<path d="M95.2,66.3c0.4,0.4,1.1,0.7,1.7,0.7c0.3,0,0.6-0.1,0.9-0.2c0.9-0.4,1.4-1.2,1.4-2.2v-10h5.2c4.5,0,8.1-3.6,8.1-8.1v-33
		c0-4.5-3.6-8.1-8.1-8.1H61.5c-0.3,0-0.5,0-0.8,0C56.8,2,51.3,0,44.7,0C27,0,7.8,14.3,1.8,32c-6,17.7,3.6,32,21.2,32
		c11,0,22.5-5.5,31.2-13.9c1.3,2.7,4.1,4.6,7.3,4.6h22L95.2,66.3z M41.6,19.6c-2,6-5.6,16.1-8.8,25.3c-0.3,0.9-0.6,1.8-0.9,2.7
		c-0.1,0.2,0,0.5,0.2,0.5c1,0,2.4-0.1,3.3-0.1c0.1,0,0.1,0,0.1,0c1.8,0,2.2,1.2,1.8,2.5c-0.4,1.3-1.8,2.6-3.7,2.5
		C32,53.1,29.5,53,27.2,53c-2.4,0-4.7,0.1-6.3,0.1c-0.1,0-0.1,0-0.1,0c-1.8,0-2.2-1.2-1.8-2.5c0.7-2.1,2.5-2.6,3.6-2.5
		c0.9,0,2.2,0.1,3.4,0.1c0.3,0,0.5-0.2,0.6-0.5c2.3-6.5,5.9-16.9,8.2-23.5c2.5-7.5,2.6-7.8,0.5-7.8c-0.5,0-1.3,0.1-1.8,0.1
		c-0.1,0-0.2,0-0.3,0c-1.8,0-2.2-1.3-1.8-2.6c0.6-1.6,1.5-2.7,5.6-2.7C44.4,11.1,43.3,14.5,41.6,19.6z M58.1,46.6v-0.7
		c3.4-4.2,6.2-8.9,7.8-13.8c2.9-8.5,2.2-16.1-1.3-21.9h39.8c1.9,0,3.4,1.5,3.4,3.4v33c0,1.9-1.5,3.4-3.4,3.4h-7.5
		c-1.3,0-2.3,1.1-2.3,2.3V59l-8.3-8.3c-0.4-0.4-1-0.7-1.7-0.7h-23C59.6,50,58.1,48.4,58.1,46.6z"/>
	<path d="M143.2,71.1c8.6,0,15.6-7,15.6-15.6c0-8.6-7-15.6-15.6-15.6c-8.6,0-15.6,7-15.6,15.6C127.6,64.1,134.6,71.1,143.2,71.1z
		 M143.2,44.5c6,0,10.9,4.9,10.9,10.9s-4.9,10.9-10.9,10.9c-6,0-10.9-4.9-10.9-10.9S137.1,44.5,143.2,44.5z"/>
	<path d="M150.9,74h-7.4c0,0,0,0,0,0c0,0,0,0,0,0c-3.9,0-7.6,1.7-10.1,4.8l-6.2,7.6l-14.3,3c-3.1,0.7-5.4,3.4-5.4,6.6
		c0,1.9,0.8,3.6,2.1,4.9c1.3,1.3,3.2,1.9,5,1.8l18.2-1.1c0.2,0,0.5-0.1,0.7-0.1l7.6-2.7v18.7c0,0.1,0,0.1-0.1,0.1h-5.3
		c-3.4,0-6.5,2-8,5.1l-8.7,18.5c-0.5,1.2,0,2.6,1.1,3.1c0.3,0.2,0.7,0.2,1,0.2c0.9,0,1.7-0.5,2.1-1.4l8.7-18.5
		c0.7-1.4,2.1-2.4,3.7-2.4h5.3c2.6,0,4.8-2.2,4.8-4.8V95.4c0-0.8-0.4-1.5-1-1.9c-0.6-0.4-1.4-0.5-2.2-0.3L132.3,97l-17.9,1
		c-0.6,0-1.1-0.2-1.5-0.6c-0.4-0.4-0.6-0.9-0.6-1.5c0-1,0.7-1.8,1.6-2l15.1-3.2c0.5-0.1,1-0.4,1.3-0.8l6.7-8.2
		c1.6-1.9,3.9-3.1,6.4-3.1h0.1h7.4c4.6,0,8.3,3.7,8.3,8.3v33v2.4c0,4.6-3.7,8.3-8.3,8.3h-6.8c-3.4,0-6.5,2-8,5.1l-5.1,11
		c-0.6,1.2,0,2.6,1.1,3.1c0.3,0.2,0.7,0.2,1,0.2c0.9,0,1.7-0.5,2.1-1.4l5.1-11c0.7-1.4,2.1-2.4,3.7-2.4h6.8c7,0,12.8-5.6,13-12.5
		c0-0.1,0-0.2,0-0.2v-0.2v-2.4V87C163.9,79.8,158.1,74,150.9,74z"/>
	<path d="M87.1,100.4H101c1.3,0,2.3-1.1,2.3-2.3c0-1.3-1.1-2.3-2.3-2.3H88.8l-7.9-21h32.6l3.2,8.6c0.5,1.2,1.8,1.8,3,1.4
		c1.2-0.5,1.8-1.8,1.4-3l-3.8-10.1c-0.3-0.9-1.2-1.5-2.2-1.5H77.5c-0.8,0-1.5,0.4-1.9,1c-0.4,0.6-0.5,1.4-0.3,2.2l9.6,25.7
		C85.3,99.8,86.2,100.4,87.1,100.4z"/>
	<path d="M132.2,109.2c0-1.3-1.1-2.3-2.3-2.3H86.2c-1.3,0-2.3,1.1-2.3,2.3c0,1.3,1.1,2.3,2.3,2.3h43.7
		C131.2,111.6,132.2,110.5,132.2,109.2z"/>
	<path d="M94.1,44l3.1-3.6l-8.8-7.5c0.6-1.2,0.9-2.5,0.9-4c0-5.2-4.2-9.4-9.4-9.4c-5.2,0-9.4,4.2-9.4,9.4c0,5.2,4.2,9.4,9.4,9.4
		c2.1,0,4-0.7,5.5-1.8L94.1,44z M80,33.6c-2.6,0-4.7-2.1-4.7-4.7c0-2.6,2.1-4.7,4.7-4.7c2.6,0,4.7,2.1,4.7,4.7
		C84.6,31.5,82.5,33.6,80,33.6z"/>
</g>
</svg>
