<svg version="1.1" class="pictogram01" xmlns="http://www.w3.org/2000/svg" xmlns:xlink="http://www.w3.org/1999/xlink" x="0px"
	 y="0px" viewBox="0 0 164.1 145.7" style="enable-background:new 0 0 164.1 145.7;" xml:space="preserve">
<g>
	<path d="M24,66.6C5.6,66.6-4.4,51.7,1.9,33.3C8.1,14.9,28.1,0,46.5,0s28.3,14.9,22.1,33.3C62.4,51.7,42.4,66.6,24,66.6z M37,50.1
		c-0.1,0-0.1,0-0.1,0c-0.9,0-2.4,0.1-3.4,0.1c-0.3,0-0.3-0.3-0.3-0.5c0.3-0.9,0.6-1.9,1-2.8c3.2-9.6,7-20.1,9.1-26.4
		c1.8-5.3,3-8.9-4.7-8.9c-4.3,0-5.3,1.1-5.9,2.8c-0.5,1.3,0,2.7,1.9,2.7c0.1,0,0.2,0,0.3,0c0.6-0.1,1.4-0.1,1.9-0.1
		c2.1,0,2.1,0.4-0.6,8.2c-2.3,6.9-6.1,17.8-8.5,24.5c-0.1,0.3-0.2,0.5-0.6,0.5c-1.2,0-2.6-0.1-3.5-0.1c-1.2-0.1-3.1,0.4-3.8,2.6
		c-0.5,1.3,0,2.6,1.9,2.6c0.1,0,0.1,0,0.1,0c1.7-0.1,4-0.1,6.5-0.1c2.4,0,4.9,0.1,6.8,0.1c2,0.1,3.3-1.3,3.8-2.6
		C39.4,51.4,38.9,50.1,37,50.1z"/>
</g>
<g>
	<path d="M139.4,80.3c10.2,0,18.5-8.3,18.5-18.5s-8.3-18.5-18.5-18.5c-10.2,0-18.5,8.3-18.5,18.5S129.2,80.3,139.4,80.3z M139.4,48
		c7.7,0,13.9,6.2,13.9,13.9s-6.2,13.9-13.9,13.9s-13.9-6.2-13.9-13.9S131.7,48,139.4,48z"/>
	<path d="M148.8,84.9h-9c0,0,0,0,0,0c0,0,0,0,0,0c-4.6,0-8.9,2-11.8,5.6l-7.6,9.4l-17.6,3.7c-3.5,0.7-6.1,3.9-6.1,7.5
		c0,2.1,0.9,4.1,2.4,5.6c1.5,1.4,3.6,2.2,5.7,2.1l22.2-1.3c0.2,0,0.4-0.1,0.7-0.1l10-3.6v23.6c0,1.3,1,2.3,2.3,2.3s2.3-1,2.3-2.3
		v-26.9c0-0.7-0.4-1.4-1-1.9c-0.6-0.4-1.4-0.5-2.1-0.3l-12.7,4.6l-21.8,1.3c-0.9,0-1.7-0.2-2.3-0.8c-0.6-0.6-1-1.4-1-2.2
		c0-1.5,1-2.7,2.4-3l18.3-3.9c0.5-0.1,1-0.4,1.3-0.8l8.2-10c2-2.5,5.1-3.9,8.3-3.9h0.1h9c5.9,0,10.7,4.8,10.7,10.7v43.3
		c0,1.3,1,2.3,2.3,2.3c1.3,0,2.3-1,2.3-2.3v-43.3C164.1,91.8,157.2,84.9,148.8,84.9z"/>
	<path d="M54.7,117.7H81c1.3,0,2.3-1,2.3-2.3c0-1.3-1-2.3-2.3-2.3H56.3l-16.5-44H106l6.6,17.6c0.4,1.2,1.8,1.8,2.9,1.3
		c1.2-0.4,1.8-1.8,1.3-2.9L109.8,66c-0.3-0.9-1.2-1.5-2.1-1.5H36.4c-0.8,0-1.5,0.4-1.9,1c-0.4,0.6-0.5,1.4-0.3,2.1l18.2,48.6
		C52.9,117.1,53.7,117.7,54.7,117.7z"/>
	<path d="M123.2,125H38c-1.3,0-2.3,1-2.3,2.3c0,1.3,1,2.3,2.3,2.3h85.2c1.3,0,2.3-1,2.3-2.3C125.5,126.1,124.5,125,123.2,125z"/>
</g>
</svg>
