<svg version="1.1" class="pictogram03" xmlns="http://www.w3.org/2000/svg" xmlns:xlink="http://www.w3.org/1999/xlink" x="0px"
	 y="0px" viewBox="0 0 176.6 153.1" style="enable-background:new 0 0 176.6 153.1;" xml:space="preserve">
<g>
	<g>
		<path d="M24,66.6C5.6,66.6-4.4,51.7,1.9,33.3C8.1,14.9,28.1,0,46.5,0s28.3,14.9,22.1,33.3C62.4,51.7,42.4,66.6,24,66.6z
			 M35.2,33.5c0.1,0,0.3,0,0.4,0c1.4,0,9.5,0.1,6.6,8.5c-1.7,4.9-7.1,8.7-13,8.7c-4.8,0-7.2-1.4-8.5-4.8c-0.3-0.9-1-1.2-1.9-1.2
			c-1.5,0-3.4,1.2-3.9,2.8c-0.8,2.4,2.6,8.5,12.2,8.5c9,0,17.8-5.8,20.5-13.9c2.4-7.1-0.9-10.2-3.8-11.5c4.1-1.9,7.1-5.3,8.3-9
			c1.2-3.5,1.5-10.9-8.7-10.9c-0.1,0-0.1,0-0.2,0c-7.1,0-14.3,4.5-15.1,7.1c-0.5,1.5,0.5,2.6,1.9,2.6c0.8,0,1.6-0.4,2.4-1.1
			c3.7-3.3,7.1-3.7,9.2-3.7c4.6,0,6.2,2.3,5,6c-1.2,3.6-4.8,6.5-9.3,6.6h-2.1c-1.7,0-3.1,1.4-3.5,2.6c-0.5,1.3,0.2,2.6,1.7,2.6
			c0.1,0,0.1,0,0.1,0L35.2,33.5z"/>
	</g>
</g>
<g>
	<path d="M79.9,67.6c0,6.3,5.1,11.4,11.4,11.4c6.3,0,11.4-5.1,11.4-11.4c0-6.3-5.1-11.4-11.4-11.4C85,56.2,79.9,61.3,79.9,67.6z
		 M98.3,67.6c0,3.9-3.2,7-7,7s-7-3.2-7-7s3.2-7,7-7S98.3,63.7,98.3,67.6z"/>
	<path d="M109.1,95v-7.1c0-4.8-3.9-8.7-8.7-8.7H82c-4.8,0-8.7,3.9-8.7,8.7V95c0,1.2,1,2.2,2.2,2.2c1.2,0,2.2-1,2.2-2.2v-7.1
		c0-2.4,2-4.4,4.4-4.4h18.4c2.4,0,4.4,2,4.4,4.4V95c0,1.2,1,2.2,2.2,2.2S109.1,96.2,109.1,95z"/>
	<path d="M117.8,87.2c0,10.4,8.5,18.9,18.9,18.9s18.9-8.5,18.9-18.9c0-10.4-8.5-18.9-18.9-18.9S117.8,76.8,117.8,87.2z M151.3,87.2
		c0,8.1-6.5,14.6-14.6,14.6c-8,0-14.6-6.5-14.6-14.6c0-8.1,6.5-14.6,14.6-14.6C144.7,72.6,151.3,79.2,151.3,87.2z"/>
	<path d="M119.7,135.3c-1.2,0-2.2,1-2.2,2.2v13.5c0,1.2,1,2.2,2.2,2.2c1.2,0,2.2-1,2.2-2.2v-13.5
		C121.9,136.2,120.9,135.3,119.7,135.3z"/>
	<path d="M153.7,135.3c-1.2,0-2.2,1-2.2,2.2v13.5c0,1.2,1,2.2,2.2,2.2c1.2,0,2.2-1,2.2-2.2v-13.5
		C155.8,136.2,154.9,135.3,153.7,135.3z"/>
	<path d="M153.4,110.2H120c-7.8,0-14.1,6.3-14.1,14.1v26.6c0,1.2,1,2.2,2.2,2.2s2.2-1,2.2-2.2v-26.6c0-5.4,4.4-9.8,9.8-9.8l7.7,0
		l25.8,0c5.4,0,9.8,4.4,9.8,9.8v26.6c0,1.2,1,2.2,2.2,2.2c1.2,0,2.2-1,2.2-2.2v-26.6C167.5,116.5,161.2,110.2,153.4,110.2z"/>
	<path d="M174.4,35.3h-18.8c-1.2,0-2.2,1-2.2,2.2s1,2.2,2.2,2.2h16.6v74.1h-2.1c-1.2,0-2.2,1-2.2,2.2c0,1.2,1,2.2,2.2,2.2h4.3
		c1.2,0,2.2-1,2.2-2.2V37.5C176.6,36.3,175.6,35.3,174.4,35.3z"/>
	<path d="M102.4,113.7H64.1V39.7h32.4c1.2,0,2.2-1,2.2-2.2s-1-2.2-2.2-2.2H62c-1.2,0-2.2,1-2.2,2.2v78.4c0,1.2,1,2.2,2.2,2.2h40.4
		c1.2,0,2.2-1,2.2-2.2C104.6,114.7,103.6,113.7,102.4,113.7z"/>
	<path d="M109.2,64.7h3.7v7.5c0,0.9,0.5,1.7,1.3,2c0.3,0.1,0.5,0.2,0.8,0.2c0.6,0,1.1-0.2,1.5-0.6l9-9h17.1c3.7,0,6.7-3,6.7-6.7
		V32.3c0-3.7-3-6.7-6.7-6.7h-33.5c-3.7,0-6.7,3-6.7,6.7v25.8C102.6,61.8,105.5,64.7,109.2,64.7z M106.9,32.3c0-1.3,1.1-2.3,2.3-2.3
		h33.5c1.3,0,2.3,1.1,2.3,2.3v25.8c0,1.3-1.1,2.3-2.3,2.3h-18c-0.6,0-1.1,0.2-1.5,0.6l-6,6v-4.4c0-1.2-1-2.2-2.2-2.2h-5.9
		c-1.3,0-2.3-1.1-2.3-2.3V32.3z"/>
	<path d="M113.4,43.2h16.2c1.2,0,2.2-1,2.2-2.2c0-1.2-1-2.2-2.2-2.2h-16.2c-1.2,0-2.2,1-2.2,2.2C111.3,42.2,112.2,43.2,113.4,43.2z"
		/>
	<path d="M113.4,51.5h25.1c1.2,0,2.2-1,2.2-2.2c0-1.2-1-2.2-2.2-2.2h-25.1c-1.2,0-2.2,1-2.2,2.2C111.3,50.5,112.2,51.5,113.4,51.5z"
		/>
</g>
</svg>
