<svg version="1.1" class="pictogram05" xmlns="http://www.w3.org/2000/svg" xmlns:xlink="http://www.w3.org/1999/xlink" x="0px"
	 y="0px" viewBox="0 0 153.9 152" style="enable-background:new 0 0 153.9 152;" xml:space="preserve">
<g>
	<path d="M79.4,81.3c-0.7-0.4-1.5-0.4-2.1,0c-0.7,0.4-1.1,1.1-1.1,1.8v26.5c0,0.8,0.4,1.5,1.1,1.8c0.3,0.2,0.7,0.3,1.1,0.3
		s0.7-0.1,1.1-0.3l22.9-13.3c0.7-0.4,1.1-1.1,1.1-1.8c0-0.8-0.4-1.5-1.1-1.8L79.4,81.3z M80.5,105.9V86.8l16.6,9.6L80.5,105.9z"/>
	<path d="M151.8,130.7h-7.3V87.4c0-1.2-1-2.1-2.1-2.1s-2.1,1-2.1,2.1v43.2h-36.9c-1.2,0-2.1,1-2.1,2.1v5.1H78.4v-5.1
		c0-1.2-1-2.1-2.1-2.1H39.4V62.1h47c1.2,0,2.1-1,2.1-2.1c0-1.2-1-2.1-2.1-2.1H44C54,52,62.3,42.6,65.9,32c6-17.7-3.6-32-21.2-32
		C27,0,7.8,14.3,1.8,32c-6,17.7,3.6,32,21.2,32c4,0,8.1-0.7,12.1-2.1v68.8h-7.3c-1.2,0-2.1,1-2.1,2.1v9.1c0,5.6,5.2,10.1,11.5,10.1
		h105.1c6.4,0,11.5-4.5,11.5-10.1v-9.1C153.9,131.6,153,130.7,151.8,130.7z M32.1,52.7c-3.2-0.1-6.3-0.2-9.5-0.2
		c-2.8,0-5.6,0.1-8.7,0.2c-0.1,0-0.1,0-0.1,0c-1.8,0-2.1-1.2-1.7-2.5c0.3-1,1.3-2.1,2.3-2.5c0.4-0.1,1.5-0.7,1.9-1
		c6.5-4.8,15.9-12,23.1-17.8c3.3-2.7,5.3-5.3,6-7.6c2.2-6.4-4.7-6.5-5.4-6.5c-3.3,0-7.3,1.6-9.9,5.2c-0.9,1.4-2.2,2-3.2,2
		c-1.4,0-2.3-1.1-1.8-2.6c0.6-1.6,6.4-9.4,16.8-9.4c7.9,0,11,5.1,9,11.1c-1.1,3.2-3.6,6.8-8.1,10.6C35.9,37.4,29,42,21.7,47.5
		c-0.2,0.1-0.2,0.2-0.2,0.3s0.1,0.1,0.2,0.1c4.2-0.1,7.7-0.2,11.7-0.3c3-0.1,3.4-0.1,6.6-4.9c0.9-1.4,2.1-2,3.2-2
		c1.4,0,2.3,1,1.8,2.5c-0.1,0.3-0.2,0.6-0.5,1c-3.6,5.5-6.5,8.5-11.9,8.5C32.4,52.7,32.2,52.7,32.1,52.7z M149.7,141.9
		c0,3.2-3.3,5.8-7.3,5.8H37.3c-4,0-7.3-2.6-7.3-5.8v-7h44.1v5.1c0,1.2,1,2.1,2.1,2.1h27.1c1.2,0,2.1-1,2.1-2.1v-5.1h44.1V141.9z"/>
	<path d="M102.8,80.8h5.4V91c0,0.9,0.5,1.6,1.3,2c0.3,0.1,0.5,0.2,0.8,0.2c0.6,0,1.1-0.2,1.5-0.6l11.7-11.7h22.1
		c4.3,0,7.9-3.5,7.9-7.9v-33c0-4.3-3.5-7.9-7.9-7.9h-42.9c-4.3,0-7.9,3.5-7.9,7.9v33C94.9,77.2,98.4,80.8,102.8,80.8z M99.1,39.9
		c0-2,1.6-3.6,3.6-3.6h42.9c2,0,3.6,1.6,3.6,3.6v33c0,2-1.6,3.6-3.6,3.6h-23c-0.6,0-1.1,0.2-1.5,0.6l-8.7,8.7v-7.2
		c0-1.2-1-2.1-2.1-2.1h-7.5c-2,0-3.6-1.6-3.6-3.6V39.9z"/>
	<path d="M108.2,53.2h20.8c1.2,0,2.1-1,2.1-2.1s-1-2.1-2.1-2.1h-20.8c-1.2,0-2.1,1-2.1,2.1S107,53.2,108.2,53.2z"/>
	<path d="M108.2,63.8h32.1c1.2,0,2.1-1,2.1-2.1c0-1.2-1-2.1-2.1-2.1h-32.1c-1.2,0-2.1,1-2.1,2.1C106.1,62.9,107,63.8,108.2,63.8z"/>
</g>
</svg>
