<svg version="1.1" class="pictogram03" xmlns="http://www.w3.org/2000/svg" xmlns:xlink="http://www.w3.org/1999/xlink" x="0px"
	 y="0px" viewBox="0 0 176.6 153.1" style="enable-background:new 0 0 176.6 153.1;" xml:space="preserve">
<g>
	<path d="M139.4,73.8c11.9,0,21.6-9.7,21.6-21.6c0-11.9-9.7-21.6-21.6-21.6c-11.9,0-21.6,9.7-21.6,21.6
		C117.7,64.1,127.4,73.8,139.4,73.8z M139.4,35.9c9,0,16.3,7.3,16.3,16.3c0,9-7.3,16.3-16.3,16.3c-9,0-16.3-7.3-16.3-16.3
		C123.1,43.2,130.4,35.9,139.4,35.9z"/>
	<path d="M150.4,79.3h-10.5c0,0,0,0,0,0c0,0,0,0,0,0c-5.4,0-10.5,2.4-13.9,6.6l-9,11l-3.6,1.4c-4.1,0.9-7.1,4.6-7.1,8.8
		c0,2.5,1,4.9,2.8,6.5c1.8,1.7,4.2,2.6,6.7,2.4l9,1.5c0.3,0,0.5-0.1,0.8-0.2l11.7-4.3v27.7c0,1.5,1.2,2.7,2.7,2.7
		c1.5,0,2.7-1.2,2.7-2.7v-31.5c0-0.9-0.4-1.7-1.1-2.2c-0.7-0.5-1.6-0.6-2.5-0.3l-14.9,5.4l-8.6-1.5c-1,0.1-2-0.3-2.7-1
		c-0.7-0.7-1.1-1.6-1.1-2.6c0-1.7,1.2-3.2,2.9-3.5l4.5-1.6c0.6-0.1,1.1-0.5,1.5-0.9l9.6-11.7c2.4-2.9,5.9-4.6,9.7-4.6h0.1h10.5
		c6.9,0,12.5,5.6,12.5,12.5V148c0,1.5,1.2,2.7,2.7,2.7c1.5,0,2.7-1.2,2.7-2.7V97.2C168.3,87.3,160.3,79.3,150.4,79.3z"/>
</g>
<g>
	<path d="M99.1,52.2c0-11.9-9.7-21.6-21.6-21.6s-21.6,9.7-21.6,21.6c0,11.9,9.7,21.6,21.6,21.6S99.1,64.1,99.1,52.2z M93.7,52.2
		c0,9-7.3,16.3-16.3,16.3c-9,0-16.3-7.3-16.3-16.3c0-9,7.3-16.3,16.3-16.3C86.4,35.9,93.7,43.2,93.7,52.2z"/>
	<path d="M66.4,79.3h10.5c0,0,0,0,0,0c0,0,0,0,0,0c5.4,0,10.5,2.4,13.9,6.6l9,11l4.6,1.4c4.1,0.9,7.1,4.6,7.1,8.8
		c0,2.5-1,4.9-2.8,6.5c-1.8,1.7-4.2,2.6-6.7,2.4l-10,1.5c-0.3,0-0.5-0.1-0.8-0.2l-11.7-4.3v27.7c0,1.5-1.2,2.7-2.7,2.7
		c-1.5,0-2.7-1.2-2.7-2.7v-31.5c0-0.9,0.4-1.7,1.1-2.2c0.7-0.5,1.6-0.6,2.5-0.3l14.9,5.4l9.6-1.5c1,0.1,2-0.3,2.7-1
		c0.7-0.7,1.1-1.6,1.1-2.6c0-1.7-1.2-3.2-2.9-3.5l-5.5-1.6c-0.6-0.1-1.1-0.5-1.5-0.9l-9.6-11.7c-2.4-2.9-5.9-4.6-9.7-4.6h-0.1H66.4
		c-6.9,0-12.5,5.6-12.5,12.5V148c0,1.5-1.2,2.7-2.7,2.7c-1.5,0-2.7-1.2-2.7-2.7V97.2C48.5,87.3,56.5,79.3,66.4,79.3z"/>
</g>
<g>
	<g>
		<path d="M24,66.6C5.6,66.6-4.4,51.7,1.9,33.3C8.1,14.9,28.1,0,46.5,0s28.3,14.9,22.1,33.3C62.4,51.7,42.4,66.6,24,66.6z
			 M35.2,33.5c0.1,0,0.3,0,0.4,0c1.4,0,9.5,0.1,6.6,8.5c-1.7,4.9-7.1,8.7-13,8.7c-4.8,0-7.2-1.4-8.5-4.8c-0.3-0.9-1-1.2-1.9-1.2
			c-1.5,0-3.4,1.2-3.9,2.8c-0.8,2.4,2.6,8.5,12.2,8.5c9,0,17.8-5.8,20.5-13.9c2.4-7.1-0.9-10.2-3.8-11.5c4.1-1.9,7.1-5.3,8.3-9
			c1.2-3.5,1.5-10.9-8.7-10.9c-0.1,0-0.1,0-0.2,0c-7.1,0-14.3,4.5-15.1,7.1c-0.5,1.5,0.5,2.6,1.9,2.6c0.8,0,1.6-0.4,2.4-1.1
			c3.7-3.3,7.1-3.7,9.2-3.7c4.6,0,6.2,2.3,5,6c-1.2,3.6-4.8,6.5-9.3,6.6h-2.1c-1.7,0-3.1,1.4-3.5,2.6c-0.5,1.3,0.2,2.6,1.7,2.6
			c0.1,0,0.1,0,0.1,0L35.2,33.5z"/>
	</g>
</g>
</svg>
