<svg version="1.1" class="pictogram02" xmlns="http://www.w3.org/2000/svg" xmlns:xlink="http://www.w3.org/1999/xlink" x="0px"
	 y="0px" viewBox="0 0 175.1 154.9" style="enable-background:new 0 0 175.1 154.9;" xml:space="preserve">
<g>
	<g>
		<path d="M24,66.6C5.6,66.6-4.4,51.7,1.9,33.3C8.1,14.9,28.1,0,46.5,0s28.3,14.9,22.1,33.3C62.4,51.7,42.4,66.6,24,66.6z
			 M14.4,54.9c3.2-0.1,6.1-0.2,9-0.2c3.4,0,6.7,0.1,9.9,0.2c0.1,0,0.4,0,0.5,0c5.7,0,8.7-3.1,12.4-8.8c0.3-0.4,0.4-0.7,0.5-1
			c0.6-1.6-0.5-2.6-1.9-2.6c-1.1,0-2.4,0.6-3.3,2.1c-3.3,5-3.8,5-6.8,5.1c-4.1,0.1-7.8,0.2-12.2,0.3c-0.1,0-0.3-0.1-0.2-0.1
			c0-0.1,0-0.1,0.2-0.3C30.2,43.8,37.4,39,44.5,33c4.7-3.9,7.3-7.7,8.4-11c2.1-6.2-1.1-11.5-9.3-11.5c-10.8,0-16.9,8.1-17.5,9.8
			c-0.5,1.6,0.4,2.7,1.9,2.7c1.1,0,2.3-0.6,3.3-2.1c2.7-3.8,6.9-5.4,10.3-5.4c0.7,0,7.9,0.1,5.6,6.8c-0.8,2.3-2.9,5.1-6.3,7.9
			c-7.5,6-17.3,13.6-24,18.5c-0.5,0.4-1.6,0.9-2,1.1c-1.1,0.4-2,1.6-2.4,2.6c-0.4,1.3-0.1,2.6,1.8,2.6
			C14.3,54.9,14.4,54.9,14.4,54.9z"/>
	</g>
</g>
<g>
	<path d="M82.8,125c6.6,0,12-5.4,12-12c0-6.6-5.4-12-12-12c-6.6,0-12,5.4-12,12C70.8,119.6,76.2,125,82.8,125z M82.8,105.5
		c4.1,0,7.5,3.3,7.5,7.5s-3.3,7.5-7.5,7.5c-4.1,0-7.5-3.3-7.5-7.5S78.7,105.5,82.8,105.5z"/>
	<path d="M92.6,125.3H73.1c-5.1,0-9.2,4.1-9.2,9.2v7.5c0,1.3,1,2.3,2.3,2.3s2.3-1,2.3-2.3v-7.5c0-2.6,2.1-4.7,4.7-4.7h19.4
		c2.6,0,4.7,2.1,4.7,4.7v7.5c0,1.3,1,2.3,2.3,2.3c1.3,0,2.3-1,2.3-2.3v-7.5C101.8,129.4,97.6,125.3,92.6,125.3z"/>
	<path d="M130.8,113c0,6.6,5.4,12,12,12c6.6,0,12-5.4,12-12c0-6.6-5.4-12-12-12C136.2,101,130.8,106.3,130.8,113z M150.2,113
		c0,4.1-3.3,7.5-7.5,7.5c-4.1,0-7.5-3.3-7.5-7.5s3.3-7.5,7.5-7.5C146.9,105.5,150.2,108.9,150.2,113z"/>
	<path d="M133.1,125.3c-5.1,0-9.2,4.1-9.2,9.2v7.5c0,1.3,1,2.3,2.3,2.3s2.3-1,2.3-2.3v-7.5c0-2.6,2.1-4.7,4.7-4.7h19.4
		c2.6,0,4.7,2.1,4.7,4.7v7.5c0,1.3,1,2.3,2.3,2.3s2.3-1,2.3-2.3v-7.5c0-5.1-4.1-9.2-9.2-9.2H133.1z"/>
	<path d="M82.8,65c6.6,0,12-5.4,12-12c0-6.6-5.4-12-12-12c-6.6,0-12,5.4-12,12C70.8,59.6,76.2,65,82.8,65z M82.8,45.6
		c4.1,0,7.5,3.3,7.5,7.5c0,4.1-3.3,7.5-7.5,7.5c-4.1,0-7.5-3.3-7.5-7.5C75.4,48.9,78.7,45.6,82.8,45.6z"/>
	<path d="M86.6,67.6c0-1.3-1-2.3-2.3-2.3H73.1c-5.1,0-9.2,4.1-9.2,9.2V82c0,1.3,1,2.3,2.3,2.3s2.3-1,2.3-2.3v-7.5
		c0-2.6,2.1-4.7,4.7-4.7h11.2C85.5,69.9,86.6,68.9,86.6,67.6z"/>
	<path d="M142.8,65c6.6,0,12-5.4,12-12c0-6.6-5.4-12-12-12c-6.6,0-12,5.4-12,12C130.8,59.6,136.2,65,142.8,65z M142.8,45.6
		c4.1,0,7.5,3.3,7.5,7.5c0,4.1-3.3,7.5-7.5,7.5c-4.1,0-7.5-3.3-7.5-7.5C135.3,48.9,138.7,45.6,142.8,45.6z"/>
	<path d="M141.3,65.3c-1.3,0-2.3,1-2.3,2.3c0,1.3,1,2.3,2.3,2.3h11.2c2.6,0,4.7,2.1,4.7,4.7V82c0,1.3,1,2.3,2.3,2.3s2.3-1,2.3-2.3
		v-7.5c0-5.1-4.1-9.2-9.2-9.2H141.3z"/>
	<path d="M172.8,30.4h-59.9h-60c-1.3,0-2.3,1-2.3,2.3v60v59.9c0,1.3,1,2.3,2.3,2.3h60h59.9c1.3,0,2.3-1,2.3-2.3V92.6v-60
		C175.1,31.4,174,30.4,172.8,30.4z M170.5,150.3h-55.4v-39.2c0-1.3-1-2.3-2.3-2.3s-2.3,1-2.3,2.3v39.2H55.1V94.9h27.7
		c1.3,0,2.3-1,2.3-2.3c0-1.3-1-2.3-2.3-2.3H55.1V34.9h55.4v21.2c0,1.3,1,2.3,2.3,2.3s2.3-1,2.3-2.3V34.9h55.4v55.4h-27.7
		c-1.3,0-2.3,1-2.3,2.3c0,1.3,1,2.3,2.3,2.3h27.7V150.3z"/>
	<path d="M137.6,96.1V68.9c0-3.9-3.2-7-7-7H95.1c-3.9,0-7,3.2-7,7v27.3c0,3.9,3.2,7,7,7H99v7.9c0,0.9,0.6,1.8,1.4,2.1
		c0.3,0.1,0.6,0.2,0.9,0.2c0.6,0,1.2-0.2,1.6-0.7l9.5-9.5h18.1C134.4,103.2,137.6,100,137.6,96.1z M111.5,98.6
		c-0.6,0-1.2,0.2-1.6,0.7l-6.3,6.3v-4.7c0-1.3-1-2.3-2.3-2.3h-6.2c-1.4,0-2.5-1.1-2.5-2.5V68.9c0-1.4,1.1-2.5,2.5-2.5h35.4
		c1.4,0,2.5,1.1,2.5,2.5v27.3c0,1.4-1.1,2.5-2.5,2.5H111.5z"/>
	<path d="M99.6,80.4h17.2c1.3,0,2.3-1,2.3-2.3s-1-2.3-2.3-2.3H99.6c-1.3,0-2.3,1-2.3,2.3S98.3,80.4,99.6,80.4z"/>
	<path d="M126.1,84.6H99.6c-1.3,0-2.3,1-2.3,2.3c0,1.3,1,2.3,2.3,2.3h26.5c1.3,0,2.3-1,2.3-2.3C128.4,85.6,127.3,84.6,126.1,84.6z"
		/>
</g>
</svg>
