<svg version="1.1" class="pictogram07" xmlns="http://www.w3.org/2000/svg" xmlns:xlink="http://www.w3.org/1999/xlink" x="0px"
	 y="0px" viewBox="0 0 128.8 85.2" style="enable-background:new 0 0 128.8 85.2;" xml:space="preserve">
<g>
	<g>
		<g>
			<path d="M103.7,85.2H7c-3.9,0-7-3.1-7-7V7c0-3.9,3.1-7,7-7h96.7c3.9,0,7,3.1,7,7v7.2h-4V7c0-1.7-1.3-3-3-3H7C5.3,4,4,5.3,4,7
				v71.2c0,1.7,1.3,3,3,3h96.7c1.7,0,3-1.3,3-3V65.1h4v13.1C110.7,82.1,107.5,85.2,103.7,85.2z"/>
		</g>
		<g>
			<rect x="8.4" y="18.7" width="93.8" height="4"/>
		</g>
		<g>
			<path d="M18.6,13.3h-1.5c-1.1,0-2-0.9-2-2s0.9-2,2-2h1.5c1.1,0,2,0.9,2,2S19.7,13.3,18.6,13.3z"/>
		</g>
		<g>
			<path d="M31.1,13.3h-1.5c-1.1,0-2-0.9-2-2s0.9-2,2-2h1.5c1.1,0,2,0.9,2,2S32.2,13.3,31.1,13.3z"/>
		</g>
		<g>
			<path d="M43.6,13.3h-1.5c-1.1,0-2-0.9-2-2s0.9-2,2-2h1.5c1.1,0,2,0.9,2,2S44.7,13.3,43.6,13.3z"/>
		</g>
	</g>
	<g>
		<g>
			<path d="M87,75.2c-0.4,0-0.8-0.1-1.1-0.3c-0.6-0.4-1-1.1-0.9-1.9l1.7-15.2c0-0.3,0.1-0.6,0.3-0.9l21.8-32.3
				c0.6-0.9,1.9-1.2,2.8-0.5l11.7,7.9c0.4,0.3,0.7,0.8,0.8,1.3c0.1,0.5,0,1.1-0.3,1.5L102.1,67c-0.2,0.3-0.4,0.5-0.7,0.6l-13.5,7.3
				C87.6,75.1,87.3,75.2,87,75.2z M90.6,58.7l-1.2,10.9l9.7-5.2l20.4-30.3l-8.4-5.7L90.6,58.7z"/>
		</g>
		<g>
			<path d="M122.3,35.6c-0.4,0-0.8-0.1-1.1-0.3l-11.7-7.9c-0.4-0.3-0.7-0.8-0.8-1.3c-0.1-0.5,0-1.1,0.3-1.5l4.4-6.5
				c0.6-0.9,1.9-1.2,2.8-0.5l11.7,7.9c0.9,0.6,1.2,1.9,0.5,2.8l-4.4,6.5C123.5,35.2,122.9,35.6,122.3,35.6z M113.3,25.1l8.4,5.7
				l2.1-3.2l-8.4-5.7L113.3,25.1z"/>
		</g>
	</g>
	<g>
		<path d="M35,51H15.8c-1.1,0-2-0.9-2-2V29.7c0-1.1,0.9-2,2-2H35c1.1,0,2,0.9,2,2V49C37,50.1,36.1,51,35,51z M17.8,47H33V31.7H17.8
			V47z"/>
	</g>
	<g>
		<path d="M35,77.5H15.8c-1.1,0-2-0.9-2-2V56.3c0-1.1,0.9-2,2-2H35c1.1,0,2,0.9,2,2v19.2C37,76.6,36.1,77.5,35,77.5z M17.8,73.5H33
			V58.3H17.8V73.5z"/>
	</g>
	<g>
		<polygon points="22.9,46.3 18.3,41.6 21.1,38.8 22.9,40.6 29.7,33.8 32.5,36.7 		"/>
	</g>
	<g>
		<g>
			<rect x="18.4" y="63.9" transform="matrix(0.7071 -0.7071 0.7071 0.7071 -39.1534 37.2614)" width="14" height="4"/>
		</g>
		<g>
			<rect x="23.4" y="58.9" transform="matrix(0.7071 -0.7071 0.7071 0.7071 -39.1527 37.2614)" width="4" height="14"/>
		</g>
	</g>
	<g>
		<rect x="42.8" y="34.6" width="18.7" height="4"/>
	</g>
	<g>
		<rect x="42.8" y="47" width="37.5" height="4"/>
	</g>
	<g>
		<rect x="42.8" y="59.4" width="18.7" height="4"/>
	</g>
	<g>
		<rect x="42.8" y="71.7" width="37.5" height="4"/>
	</g>
</g>
</svg>
