<svg version="1.1" class="pictogram06" xmlns="http://www.w3.org/2000/svg" xmlns:xlink="http://www.w3.org/1999/xlink" x="0px"
	 y="0px" viewBox="0 0 155.4 147.9" style="enable-background:new 0 0 155.4 147.9;" xml:space="preserve">
<g>
	<path d="M144.4,50.7h-10.9c-1.1,0-2.1,0.9-2.1,2.1c0,1.1,0.9,2.1,2.1,2.1h10.9c3.8,0,6.9,3.1,6.9,6.9v48.6H47.3V61.7
		c0-3.8,3.1-6.9,6.9-6.9h23.1c1.1,0,2.1-0.9,2.1-2.1c0-1.1-0.9-2.1-2.1-2.1H54.3c-0.3,0-0.5,0-0.7,0c5.6-5.3,10-11.7,12.4-18.7
		c6-17.7-3.6-32-21.2-32C27,0,7.8,14.3,1.8,32c-6,17.7,3.6,32,21.2,32c7,0,14.3-2.3,20.9-6.1c-0.4,1.2-0.7,2.5-0.7,3.8v53.1
		c0,6.1,5,11.1,11.1,11.1H88l-3.3,17.9h-7.8c-1.1,0-2.1,0.9-2.1,2.1c0,1.1,0.9,2.1,2.1,2.1h9.5h25.9h9.5c1.1,0,2.1-0.9,2.1-2.1
		c0-1.1-0.9-2.1-2.1-2.1H114l-3.3-17.9h33.7c6.1,0,11.1-5,11.1-11.1V61.7C155.4,55.6,150.5,50.7,144.4,50.7z M26.1,53.8
		c-9.2,0-12.5-5.8-11.7-8.1c0.5-1.5,2.3-2.7,3.8-2.7c0.8,0,1.5,0.3,1.8,1.2c1.2,3.3,3.5,4.6,8.1,4.6c5.6,0,10.9-3.7,12.5-8.4
		c2.7-8-5-8.2-6.4-8.2c-0.1,0-0.3,0-0.4,0l-1.5,0.1c-0.1,0-0.1,0-0.1,0c-1.4,0-2-1.2-1.6-2.5c0.4-1.2,1.7-2.5,3.4-2.5h2
		c4.3-0.1,7.7-2.9,8.9-6.3c1.2-3.5-0.4-5.7-4.8-5.7c-2,0-5.3,0.3-8.8,3.5c-0.8,0.7-1.6,1-2.3,1c-1.3,0-2.3-1.1-1.8-2.5
		c0.8-2.5,7.7-6.8,14.5-6.8c0.1,0,0.1,0,0.2,0c9.8,0,9.5,7.1,8.3,10.4c-1.2,3.5-4.1,6.8-8,8.6c2.7,1.2,5.9,4.2,3.6,11.1
		C43.2,48.2,34.8,53.8,26.1,53.8z M88.9,143.8l3.3-17.9h14.3l3.3,17.9H88.9z M151.3,114.9c0,3.8-3.1,6.9-6.9,6.9h-36.2H90.5H54.3
		c-3.8,0-6.9-3.1-6.9-6.9v-0.4h103.9V114.9z"/>
	<path d="M77.4,88.1c6,0,10.9-4.9,10.9-10.9c0-6-4.9-10.9-10.9-10.9s-10.9,4.9-10.9,10.9C66.5,83.2,71.4,88.1,77.4,88.1z M77.4,70.5
		c3.7,0,6.8,3,6.8,6.8c0,3.7-3,6.8-6.8,6.8c-3.7,0-6.8-3-6.8-6.8C70.6,73.5,73.7,70.5,77.4,70.5z"/>
	<path d="M92.5,105.6c1.1,0,2.1-0.9,2.1-2.1v-6.8c0-4.6-3.8-8.4-8.4-8.4H68.6c-4.6,0-8.4,3.8-8.4,8.4v6.8c0,1.1,0.9,2.1,2.1,2.1
		s2.1-0.9,2.1-2.1v-6.8c0-2.3,1.9-4.2,4.2-4.2h17.6c2.3,0,4.2,1.9,4.2,4.2v6.8C90.4,104.7,91.4,105.6,92.5,105.6z"/>
	<path d="M121.2,66.3c-6,0-10.9,4.9-10.9,10.9c0,6,4.9,10.9,10.9,10.9s10.9-4.9,10.9-10.9C132.1,71.2,127.3,66.3,121.2,66.3z
		 M121.2,84c-3.7,0-6.8-3-6.8-6.8c0-3.7,3-6.8,6.8-6.8s6.8,3,6.8,6.8C128,80.9,125,84,121.2,84z"/>
	<path d="M136.4,105.6c1.1,0,2.1-0.9,2.1-2.1v-6.8c0-4.6-3.8-8.4-8.4-8.4h-17.6c-4.6,0-8.4,3.8-8.4,8.4v6.8c0,1.1,0.9,2.1,2.1,2.1
		c1.1,0,2.1-0.9,2.1-2.1v-6.8c0-2.3,1.9-4.2,4.2-4.2h17.6c2.3,0,4.2,1.9,4.2,4.2v6.8C134.3,104.7,135.2,105.6,136.4,105.6z"/>
	<path d="M89.7,61.9h3.6v7.2c0,0.8,0.5,1.6,1.3,1.9c0.3,0.1,0.5,0.2,0.8,0.2c0.5,0,1.1-0.2,1.5-0.6l8.7-8.7h16.4
		c3.5,0,6.4-2.9,6.4-6.4V30.8c0-3.5-2.9-6.4-6.4-6.4H89.7c-3.5,0-6.4,2.9-6.4,6.4v24.7C83.3,59.1,86.1,61.9,89.7,61.9z M87.4,30.8
		c0-1.2,1-2.2,2.2-2.2h32.2c1.2,0,2.2,1,2.2,2.2v24.7c0,1.2-1,2.2-2.2,2.2h-17.2c-0.5,0-1.1,0.2-1.5,0.6l-5.7,5.7v-4.3
		c0-1.1-0.9-2.1-2.1-2.1h-5.7c-1.2,0-2.2-1-2.2-2.2V30.8z"/>
	<path d="M93.7,41.3h15.6c1.1,0,2.1-0.9,2.1-2.1c0-1.1-0.9-2.1-2.1-2.1H93.7c-1.1,0-2.1,0.9-2.1,2.1C91.7,40.3,92.6,41.3,93.7,41.3z
		"/>
	<path d="M93.7,49.2h24.1c1.1,0,2.1-0.9,2.1-2.1c0-1.1-0.9-2.1-2.1-2.1H93.7c-1.1,0-2.1,0.9-2.1,2.1C91.7,48.3,92.6,49.2,93.7,49.2z
		"/>
</g>
</svg>
